<svg xmlns="http://www.w3.org/2000/svg" width="52" height="52" viewBox="0 0 52 52">
  <g id="ic_jiotv" transform="translate(-0.093 0.127)">
    <rect id="Rectangle_9855" data-name="Rectangle 9855" width="52" height="52" rx="26" transform="translate(0.093 -0.127)" fill="#e30513"/>
    <g id="Group_16" data-name="Group 16" transform="translate(9.623 11.558)">
      <path id="Path_11940" data-name="Path 11940" d="M28.391,34.6H19.777a1.678,1.678,0,1,0,0,3.356h8.613a1.721,1.721,0,0,0,1.677-1.677A1.647,1.647,0,0,0,28.391,34.6Z" transform="translate(-7.92 -9.095)" fill="#fff"/>
      <path id="Path_11941" data-name="Path 11941" d="M38.306,11.8H12.132A3.034,3.034,0,0,0,9,14.82V30.482a3.126,3.126,0,0,0,3.132,3.132H38.419a3.126,3.126,0,0,0,3.132-3.132V14.82A3.205,3.205,0,0,0,38.306,11.8Zm-9.06,12.081-5.37,4.251a1.118,1.118,0,0,1-1.9-.783V18.959a1.118,1.118,0,0,1,1.9-.783l5.37,4.251A1.174,1.174,0,0,1,29.246,23.882Z" transform="translate(-9 -11.799)" fill="#fff"/>
    </g>
    <path id="Path_64469" data-name="Path 64469" d="M0,15Z" transform="translate(0.141 8.124)" fill="#fdc3c7" opacity="0.2"/>
  </g>
</svg>
