<?xml version="1.0" encoding="UTF-8"?>
<svg id="Layer_1" data-name="Layer 1" xmlns="http://www.w3.org/2000/svg" viewBox="0 0 432 432">
  <defs>
    <style>
      .cls-1, .cls-2, .cls-3 {
        stroke-width: 0px;
      }

      .cls-1, .cls-3 {
        fill: #fff;
      }

      .cls-2 {
        fill: #09f;
      }

      .cls-3 {
        fill-rule: evenodd;
      }
    </style>
  </defs>
  <circle class="cls-2" cx="216" cy="216" r="208.8"/>
  <g>
    <g>
      <path class="cls-1" d="M75.83,227.04c-.96,0-1.65-.2-2.09-.61-.44-.41-.66-1.12-.66-2.15v-73.55c0-1.03.22-1.75.66-2.15.44-.4,1.14-.61,2.09-.61h7.94c1.69,0,2.72.81,3.09,2.43l.77,2.87c2.2-2.13,4.87-3.82,8-5.07,3.12-1.25,6.3-1.88,9.54-1.88,7.13,0,12.77,2.61,16.93,7.83,4.15,5.22,6.23,12.28,6.23,21.17,0,6.1-1.03,11.43-3.09,15.99-2.06,4.56-4.85,8.07-8.38,10.53-3.53,2.46-7.57,3.69-12.13,3.69-3.02,0-5.88-.48-8.6-1.43-2.72-.95-5.04-2.28-6.95-3.97v24.15c0,1.03-.2,1.75-.61,2.15-.41.4-1.12.61-2.15.61h-10.59ZM99.98,193.41c4.12,0,7.15-1.39,9.1-4.19,1.95-2.79,2.92-7.2,2.92-13.23s-.96-10.55-2.87-13.34c-1.91-2.79-4.96-4.19-9.15-4.19-3.82,0-7.43.99-10.81,2.98v29c3.23,1.99,6.84,2.98,10.81,2.98Z"/>
      <path class="cls-1" d="M141.87,204.33c-.96,0-1.66-.22-2.1-.66-.44-.44-.66-1.14-.66-2.09v-50.83c0-1.03.22-1.75.66-2.15.44-.4,1.14-.61,2.1-.61h7.94c1.69,0,2.72.81,3.09,2.43l1.43,5.96c2.94-3.23,5.71-5.53,8.32-6.89,2.61-1.36,5.39-2.04,8.33-2.04h1.54c1.03,0,1.76.2,2.2.61.44.4.66,1.12.66,2.15v9.26c0,.96-.2,1.65-.61,2.09-.41.44-1.12.66-2.15.66-.52,0-1.18-.04-1.99-.11-.81-.07-1.84-.11-3.09-.11-1.69,0-3.75.24-6.18.72-2.43.48-4.49,1.09-6.18,1.82v37.05c0,.96-.2,1.65-.61,2.09-.41.44-1.12.66-2.15.66h-10.58Z"/>
      <path class="cls-1" d="M191.23,139.27c-2.8,0-5.04-.77-6.73-2.32-1.69-1.54-2.54-3.64-2.54-6.28s.84-4.74,2.54-6.29c1.69-1.54,3.93-2.32,6.73-2.32s5.03.77,6.73,2.32c1.69,1.54,2.54,3.64,2.54,6.29s-.85,4.74-2.54,6.28c-1.69,1.54-3.93,2.32-6.73,2.32ZM185.93,204.33c-.95,0-1.65-.22-2.09-.66-.44-.44-.66-1.14-.66-2.09v-50.83c0-1.03.22-1.75.66-2.15.44-.4,1.14-.61,2.09-.61h10.59c1.03,0,1.75.2,2.15.61.4.41.61,1.12.61,2.15v50.83c0,.96-.2,1.65-.61,2.09-.4.44-1.12.66-2.15.66h-10.59Z"/>
      <path class="cls-1" d="M215.69,204.33c-.96,0-1.66-.22-2.1-.66-.44-.44-.66-1.14-.66-2.09v-50.83c0-1.03.22-1.75.66-2.15.44-.4,1.14-.61,2.1-.61h7.94c1.69,0,2.72.81,3.09,2.43l.88,2.98c3.9-2.57,7.41-4.39,10.53-5.46,3.12-1.07,6.34-1.6,9.65-1.6,6.62,0,11.28,2.35,14,7.06,3.75-2.5,7.28-4.3,10.59-5.4,3.31-1.1,6.73-1.65,10.26-1.65,5.14,0,9.13,1.43,11.96,4.3,2.83,2.87,4.25,6.88,4.25,12.02v38.93c0,.96-.2,1.65-.61,2.09-.41.44-1.12.66-2.15.66h-10.58c-.96,0-1.66-.22-2.09-.66-.44-.44-.66-1.14-.66-2.09v-35.4c0-5-2.24-7.5-6.73-7.5-3.97,0-7.98.96-12.02,2.87v40.03c0,.96-.2,1.65-.61,2.09-.41.44-1.12.66-2.15.66h-10.59c-.96,0-1.65-.22-2.09-.66-.44-.44-.66-1.14-.66-2.09v-35.4c0-5-2.24-7.5-6.73-7.5-4.12,0-8.16.99-12.13,2.98v39.92c0,.96-.2,1.65-.61,2.09-.41.44-1.12.66-2.15.66h-10.58Z"/>
      <path class="cls-1" d="M337.09,205.98c-9.12,0-16.12-2.5-21.01-7.5-4.89-5-7.33-12.17-7.33-21.5s2.5-17.05,7.5-22.5c5-5.44,11.95-8.16,20.84-8.16,6.84,0,12.19,1.65,16.05,4.96,3.86,3.31,5.79,7.72,5.79,13.23s-2.08,9.69-6.23,12.52c-4.15,2.83-10.27,4.25-18.36,4.25-4.19,0-7.83-.4-10.92-1.21.44,4.93,1.93,8.45,4.47,10.59,2.54,2.13,6.38,3.2,11.52,3.2,2.06,0,4.06-.13,6.01-.39,1.95-.26,4.65-.83,8.1-1.71.22-.07.44-.13.66-.17.22-.04.4-.06.55-.06,1.25,0,1.87.85,1.87,2.54v5.07c0,1.18-.16,2-.49,2.48-.33.48-.98.9-1.93,1.27-5.37,2.06-11.07,3.09-17.09,3.09ZM333.45,171.36c3.75,0,6.47-.57,8.16-1.71,1.69-1.14,2.54-2.88,2.54-5.24,0-4.63-2.76-6.95-8.27-6.95-7.06,0-11.14,4.34-12.24,13.01,2.94.59,6.21.88,9.81.88Z"/>
    </g>
    <g>
      <path class="cls-3" d="M330.58,274.82c-31.06,22.92-76.09,35.11-114.86,35.11-54.34,0-103.28-20.09-140.31-53.53-2.91-2.63-.31-6.21,3.18-4.18,39.95,23.25,89.36,37.25,140.4,37.25,34.43,0,72.27-7.14,107.09-21.91,5.25-2.23,9.65,3.46,4.51,7.26h0Z"/>
      <path class="cls-3" d="M343.51,260.07c-3.97-5.09-26.26-2.41-36.27-1.21-3.03.36-3.5-2.29-.77-4.21,17.78-12.49,46.91-8.88,50.3-4.7,3.41,4.22-.9,33.42-17.56,47.36-2.56,2.14-5,1-3.86-1.83,3.75-9.36,12.14-30.33,8.17-35.42h0Z"/>
    </g>
  </g>
</svg>